<svg width="22" height="21" viewBox="0 0 22 21" fill="none" xmlns="http://www.w3.org/2000/svg">
<path d="M16.0396 0.800102C15.0078 0.816151 13.9985 1.10418 13.1136 1.6351C12.2287 2.16602 11.4996 2.92103 10.9999 3.82389C10.5002 2.92103 9.7711 2.16602 8.88623 1.6351C8.00136 1.10418 6.99207 0.816151 5.96027 0.800102C4.31545 0.871565 2.76577 1.5911 1.64979 2.80152C0.533807 4.01193 -0.057766 5.61483 0.00431383 7.26002C0.00431383 11.4264 4.38973 15.9768 8.06776 19.062C8.88896 19.7521 9.92726 20.1304 10.9999 20.1304C12.0726 20.1304 13.1109 19.7521 13.9321 19.062C17.6101 15.9768 21.9955 11.4264 21.9955 7.26002C22.0576 5.61483 21.466 4.01193 20.35 2.80152C19.2341 1.5911 17.6844 0.871565 16.0396 0.800102Z" fill="#343A3F"/>
</svg>
