<svg width="16" height="24" viewBox="0 0 16 24" fill="none" xmlns="http://www.w3.org/2000/svg">
<path d="M13.9692 0H2.03061C1.41829 0 0.92334 0.495781 0.92334 1.10727V22.8923C0.92334 23.5042 1.41873 24 2.03061 24H13.9692C14.5807 24 15.0765 23.5042 15.0765 22.8923V1.10727C15.0769 0.495386 14.5807 0 13.9692 0ZM6.77655 1.30677H9.22245C9.3503 1.30677 9.45338 1.4099 9.45338 1.5377C9.45338 1.6655 9.3503 1.76863 9.22245 1.76863H6.77655C6.64958 1.76863 6.54562 1.6655 6.54562 1.5377C6.54562 1.4099 6.64958 1.30677 6.77655 1.30677ZM9.47687 22.0302H6.52257C6.28033 22.0302 6.08376 21.834 6.08376 21.5918C6.08376 21.3496 6.28033 21.1534 6.52257 21.1534H9.47683C9.71902 21.1534 9.91476 21.3496 9.91476 21.5918C9.9148 21.8341 9.7195 22.0302 9.47687 22.0302ZM13.6926 19.446H2.30725V3.7535H13.6926V19.446Z" fill="#4888FF"/>
</svg>
