<svg width="22" height="22" viewBox="0 0 22 22" fill="none" xmlns="http://www.w3.org/2000/svg">
<path d="M11.0001 0.5C5.21074 0.5 0.5 5.1806 0.5 11.0001C0.5 16.8035 5.19618 21.5002 11.0001 21.5002C16.8126 21.5002 21.5002 16.794 21.5002 11.0001C21.5003 5.18535 16.7922 0.5 11.0001 0.5ZM9.78855 2.96798C8.62685 3.72153 7.81457 4.30002 7.63467 4.94233C7.32057 6.06413 9.31748 6.8801 9.87087 7.37143C10.875 8.26288 10.4135 10.4705 9.3635 11.4543C8.31349 12.438 7.92318 13.4358 8.03852 14.1861C8.18913 15.1659 9.29931 16.7236 9.89474 17.6901C10.4902 18.6566 9.85582 18.8752 9.02569 18.3816C8.40857 18.0147 5.56816 17.3223 4.70501 16.6952C3.84187 16.068 3.57149 13.9191 3.84417 13.0255C4.11684 12.132 4.43755 9.75217 3.07622 8.9654C2.7216 8.76044 2.45934 8.51623 2.26841 8.25016C3.47785 4.41848 7.13395 1.68487 11.3708 1.85427C10.7744 2.29171 10.1875 2.70921 9.78855 2.96798ZM18.763 12.7053C17.5943 12.5833 16.2374 12.3972 15.981 12.2565C14.9107 11.6695 15.263 10.8655 15.7063 9.69877C16.1495 8.53211 13.9227 7.51109 13.9227 6.109C13.9227 4.73865 14.7997 3.82961 15.8394 3.2334C18.4282 4.85226 20.1541 7.72819 20.1541 11.0001C20.1541 12.3072 19.8782 13.5508 19.3824 14.6767C19.3355 13.6888 19.4312 12.775 18.763 12.7053Z" fill="#343A3F" fill-opacity="0.5"/>
</svg>
