<svg width="18" height="20" viewBox="0 0 18 20" fill="none" xmlns="http://www.w3.org/2000/svg">
<path d="M11.8977 15.5083C11.8977 14.4391 11.2244 13.8175 9.93354 12.7216C9.64187 12.4716 9.32687 12.2066 9.00187 11.9116C8.63104 12.2525 8.27854 12.5525 7.95521 12.8283C6.66687 13.9166 6.10271 14.4491 6.10271 15.5083C6.10271 16.2768 6.40798 17.0137 6.95137 17.5571C7.49475 18.1005 8.23174 18.4058 9.00021 18.4058C9.76867 18.4058 10.5057 18.1005 11.049 17.5571C11.5924 17.0137 11.8977 16.2768 11.8977 15.5083Z" fill="#4888FF" fill-opacity="0.5"/>
<path d="M12.6738 3.3625C11.6738 2.51333 10.6404 1.63583 9.59544 0.591667L9.00044 0L8.4171 0.5925C6.53877 2.4775 5.65044 5.3725 5.26544 7.10917C4.97001 6.65171 4.75077 6.14935 4.61627 5.62167L4.26044 4.2575L3.23294 5.22167C1.43377 6.91167 0.232937 8.5875 0.232937 11.2708C0.215638 13.2071 0.845902 15.0936 2.02359 16.6307C3.20128 18.1677 4.85885 19.2671 6.73294 19.7542C7.20383 19.8735 7.68336 19.9557 8.1671 20C7.11817 19.8045 6.17052 19.2486 5.48804 18.4284C4.80556 17.6082 4.43117 16.5753 4.4296 15.5083C4.4296 13.6333 5.56044 12.675 6.8696 11.5567C7.3371 11.1592 7.8696 10.7083 8.4071 10.1675L9.00044 9.5775L9.59044 10.1675C10.0704 10.6475 10.5504 11.0542 11.0146 11.4492C12.3279 12.5633 13.5679 13.6158 13.5679 15.5083C13.5666 16.5711 13.1952 17.6003 12.5176 18.419C11.84 19.2378 10.8984 19.795 9.8546 19.995C12.0217 19.7847 14.0328 18.7748 15.4957 17.1622C16.9586 15.5495 17.7684 13.4498 17.7671 11.2725C17.7671 7.6875 15.4063 5.68333 12.6738 3.3625Z" fill="#4888FF" fill-opacity="0.5"/>
</svg>
