<svg width="20" height="20" viewBox="0 0 20 20" fill="none" xmlns="http://www.w3.org/2000/svg">
<path d="M19.7665 18.5891L14.7964 13.6191C16.1508 11.9626 16.8167 9.8489 16.6564 7.71521C16.4961 5.58152 15.5218 3.59108 13.9351 2.15558C12.3484 0.720085 10.2706 -0.0506301 8.13157 0.00285249C5.99254 0.0563351 3.95589 0.929923 2.44289 2.44292C0.929893 3.95592 0.0563045 5.99257 0.00282197 8.1316C-0.0506606 10.2706 0.720055 12.3484 2.15555 13.9351C3.59105 15.5218 5.58149 16.4961 7.71518 16.6564C9.84887 16.8167 11.9626 16.1508 13.619 14.7964L18.5891 19.7665C18.7462 19.9182 18.9565 20.0021 19.1748 20.0002C19.3931 19.9983 19.602 19.9107 19.7563 19.7564C19.9107 19.602 19.9983 19.3931 20.0002 19.1748C20.0021 18.9565 19.9182 18.7462 19.7665 18.5891ZM8.35336 15.0146C7.0359 15.0146 5.74802 14.6239 4.6526 13.892C3.55717 13.16 2.70339 12.1197 2.19922 10.9025C1.69505 9.68534 1.56313 8.346 1.82016 7.05385C2.07718 5.76171 2.7116 4.5748 3.64318 3.64321C4.57477 2.71163 5.76168 2.07721 7.05382 1.82019C8.34597 1.56316 9.68531 1.69508 10.9025 2.19925C12.1197 2.70342 13.16 3.5572 13.8919 4.65263C14.6239 5.74805 15.0146 7.03593 15.0146 8.35339C15.0126 10.1194 14.3101 11.8126 13.0613 13.0614C11.8126 14.3102 10.1194 15.0126 8.35336 15.0146Z" fill="white"/>
</svg>
