<svg width="24" height="22" viewBox="0 0 24 22" fill="none" xmlns="http://www.w3.org/2000/svg">
<path d="M23.53 0.966354C23.3401 0.792546 23.1073 0.672432 22.8556 0.61835C22.6039 0.564268 22.3423 0.578167 22.0978 0.658619L0.995214 7.61492C0.420104 7.80448 0.0301044 8.31785 0.00165128 8.92268C-0.026755 9.52756 0.313323 10.0753 0.868042 10.3181L6.08687 12.6014L7.66145 19.9043C7.72684 20.2077 7.88082 20.4779 8.20703 20.561C8.53698 20.6451 8.77009 20.4648 9.01628 20.2804L12.8891 17.3805L17.4167 21.0855C17.6804 21.3014 18.0027 21.414 18.3314 21.414C18.4906 21.4138 18.6487 21.3876 18.7995 21.3363C19.276 21.1747 19.6292 20.7858 19.7444 20.296L23.9616 2.36623C24.0204 2.11559 24.0114 1.85382 23.9356 1.6078C23.8597 1.36178 23.7197 1.14039 23.53 0.966354ZM9.35364 13.9099C9.35106 13.9159 9.34853 13.9228 9.34614 13.9311L8.47313 16.9811L7.49889 12.4626L14.1981 8.74053L9.51432 13.6379C9.44087 13.7152 9.38593 13.8082 9.35364 13.9099ZM9.63071 18.0595L10.0272 16.6741L10.4065 15.349L11.7654 16.461L9.63071 18.0595ZM22.5894 2.04345L18.3723 19.9732C18.3702 19.9821 18.3674 19.9944 18.3468 20.0014C18.3264 20.0083 18.3164 20.0004 18.3094 19.9946L13.3551 15.9405L13.3547 15.9402L11.0593 14.0618L18.4338 6.35093C18.5504 6.22906 18.6194 6.06944 18.6283 5.90105C18.6372 5.73265 18.5854 5.56665 18.4824 5.43317C18.3793 5.29967 18.2318 5.20755 18.0666 5.17353C17.9015 5.13952 17.7296 5.16586 17.5822 5.24778L6.66259 11.3148L1.43307 9.02665C1.41714 9.01971 1.40837 9.01582 1.40964 8.98887C1.4109 8.96201 1.42 8.95896 1.4365 8.95353L22.5391 1.99728C22.5493 1.99395 22.5608 1.9901 22.5778 2.00557C22.5947 2.02114 22.5919 2.03295 22.5894 2.04345Z" fill="#343A3F"/>
</svg>
